<svg width="76" height="74" viewBox="0 0 76 74" fill="none" xmlns="http://www.w3.org/2000/svg">
<g clip-path="url(#clip0_117_109)">
<path d="M28.5 9.25H15.8333C14.1536 9.25 12.5427 9.8997 11.355 11.0562C10.1673 12.2126 9.5 13.7812 9.5 15.4167V27.75C9.5 29.3855 10.1673 30.954 11.355 32.1105C12.5427 33.267 14.1536 33.9167 15.8333 33.9167H28.5C30.1797 33.9167 31.7906 33.267 32.9783 32.1105C34.1661 30.954 34.8333 29.3855 34.8333 27.75V15.4167C34.8333 13.7812 34.1661 12.2126 32.9783 11.0562C31.7906 9.8997 30.1797 9.25 28.5 9.25ZM28.5 40.0833H15.8333C14.1536 40.0833 12.5427 40.733 11.355 41.8895C10.1673 43.046 9.5 44.6145 9.5 46.25V58.5833C9.5 60.2188 10.1673 61.7873 11.355 62.9438C12.5427 64.1003 14.1536 64.75 15.8333 64.75H28.5C30.1797 64.75 31.7906 64.1003 32.9783 62.9438C34.1661 61.7873 34.8333 60.2188 34.8333 58.5833V46.25C34.8333 44.6145 34.1661 43.046 32.9783 41.8895C31.7906 40.733 30.1797 40.0833 28.5 40.0833ZM60.1667 40.0833H47.5C45.8203 40.0833 44.2094 40.733 43.0217 41.8895C41.8339 43.046 41.1667 44.6145 41.1667 46.25V58.5833C41.1667 60.2188 41.8339 61.7873 43.0217 62.9438C44.2094 64.1003 45.8203 64.75 47.5 64.75H60.1667C61.8464 64.75 63.4573 64.1003 64.645 62.9438C65.8327 61.7873 66.5 60.2188 66.5 58.5833V46.25C66.5 44.6145 65.8327 43.046 64.645 41.8895C63.4573 40.733 61.8464 40.0833 60.1667 40.0833ZM53.8333 9.25C54.609 9.2501 55.3576 9.52736 55.9372 10.0292C56.5168 10.531 56.8871 11.2226 56.9778 11.9726L57 12.3333V18.5H63.3333C64.1405 18.5009 64.9168 18.8018 65.5037 19.3413C66.0906 19.8808 66.4437 20.6181 66.491 21.4026C66.5383 22.1872 66.2762 22.9597 65.7582 23.5623C65.2401 24.165 64.5053 24.5523 63.7038 24.6451L63.3333 24.6667H57V30.8333C56.9991 31.6192 56.6901 32.3751 56.136 32.9466C55.5819 33.518 54.8246 33.8619 54.0189 33.9079C53.2132 33.954 52.4198 33.6988 51.8009 33.1944C51.1819 32.6899 50.7842 31.9745 50.6888 31.1941L50.6667 30.8333V24.6667H44.3333C43.5262 24.6658 42.7499 24.3649 42.163 23.8254C41.5761 23.2859 41.2229 22.5486 41.1756 21.764C41.1283 20.9795 41.3905 20.207 41.9085 19.6044C42.4265 19.0017 43.1614 18.6144 43.9628 18.5216L44.3333 18.5H50.6667V12.3333C50.6667 11.5156 51.0003 10.7313 51.5942 10.1531C52.188 9.57485 52.9935 9.25 53.8333 9.25Z" fill="white"/>
</g>
<defs>
<clipPath id="clip0_117_109">
<rect width="76" height="74" fill="white"/>
</clipPath>
</defs>
</svg>
