<svg width="60" height="50" viewBox="0 0 60 50" fill="none" xmlns="http://www.w3.org/2000/svg">
<g clip-path="url(#clip0_237_22)">
<path d="M19.5 34.375C30.2719 34.375 39 26.6797 39 17.1875C39 7.69531 30.2719 0 19.5 0C8.72811 0 -1.15561e-05 7.69531 -1.15561e-05 17.1875C-1.15561e-05 20.957 1.37811 24.4434 3.71249 27.2852C3.38436 28.2031 2.89686 29.0137 2.38124 29.6973C1.93124 30.3027 1.47186 30.7715 1.13436 31.0937C0.965613 31.25 0.824988 31.377 0.731238 31.4551C0.684363 31.4941 0.646863 31.5234 0.628113 31.5332L0.609363 31.5527C0.0937384 31.9531 -0.131262 32.6562 0.0749884 33.291C0.281238 33.9258 0.853113 34.375 1.49999 34.375C3.54374 34.375 5.60624 33.8281 7.32186 33.1543C8.18436 32.8125 8.99061 32.4316 9.69374 32.041C12.5719 33.5254 15.9187 34.375 19.5 34.375ZM42 17.1875C42 28.1543 32.7094 36.416 21.7031 37.4023C23.9812 44.668 31.5375 50 40.5 50C44.0812 50 47.4281 49.1504 50.3156 47.666C51.0187 48.0566 51.8156 48.4375 52.6781 48.7793C54.3937 49.4531 56.4562 50 58.5 50C59.1469 50 59.7281 49.5605 59.925 48.916C60.1219 48.2715 59.9062 47.5684 59.3812 47.168L59.3625 47.1484C59.3437 47.1289 59.3062 47.1094 59.2594 47.0703C59.1656 46.9922 59.025 46.875 58.8562 46.709C58.5187 46.3867 58.0594 45.918 57.6094 45.3125C57.0937 44.6289 56.6062 43.8086 56.2781 42.9004C58.6125 40.0684 59.9906 36.582 59.9906 32.8027C59.9906 23.7402 52.0312 16.3086 41.9344 15.6641C41.9719 16.1621 41.9906 16.6699 41.9906 17.1777L42 17.1875Z" fill="white"/>
</g>
<defs>
<clipPath id="clip0_237_22">
<rect width="60" height="50" fill="white"/>
</clipPath>
</defs>
</svg>
