<svg width="60" height="55" viewBox="0 0 60 55" fill="none" xmlns="http://www.w3.org/2000/svg">
<path d="M47.5 47.1429V55H17.5V47.1429C17.5 47.1429 17.5 31.4286 32.5 31.4286C47.5 31.4286 47.5 47.1429 47.5 47.1429ZM40 11.7857C40 9.45472 39.5601 7.17608 38.736 5.23793C37.9119 3.29978 36.7406 1.78917 35.3701 0.897139C33.9997 0.00510659 32.4917 -0.22829 31.0368 0.226464C29.582 0.681219 28.2456 1.8037 27.1967 3.45196C26.1478 5.10022 25.4335 7.20024 25.1441 9.48644C24.8547 11.7726 25.0032 14.1424 25.5709 16.2959C26.1386 18.4495 27.0999 20.2901 28.3332 21.5852C29.5666 22.8802 31.0166 23.5714 32.5 23.5714C34.4891 23.5714 36.3968 22.3297 37.8033 20.1195C39.2098 17.9092 40 14.9115 40 11.7857ZM48 31.6643C49.3666 33.6455 50.4683 36.0346 51.2409 38.6922C52.0136 41.3497 52.4416 44.2225 52.5 47.1429V55H60V47.1429C60 47.1429 60 33.5893 48 31.6643ZM45 4.48448e-06C44.2447 0.000714822 43.494 0.186271 42.775 0.550004C44.2376 3.84596 45.0218 7.76751 45.0218 11.7857C45.0218 15.8039 44.2376 19.7255 42.775 23.0214C43.494 23.3852 44.2447 23.5707 45 23.5714C46.9891 23.5714 48.8968 22.3297 50.3033 20.1195C51.7098 17.9092 52.5 14.9115 52.5 11.7857C52.5 8.65995 51.7098 5.66221 50.3033 3.45196C48.8968 1.24171 46.9891 4.48448e-06 45 4.48448e-06ZM20 19.6429H12.5V7.85715H7.5V19.6429H0V27.5H7.5V39.2857H12.5V27.5H20V19.6429Z" fill="white"/>
</svg>
