<svg width="68" height="68" viewBox="0 0 68 68" fill="none" xmlns="http://www.w3.org/2000/svg">
<g filter="url(#filter0_d_237_10)">
<path d="M34 45C34.85 45 35.563 44.712 36.139 44.136C36.715 43.56 37.002 42.848 37 42V29.925C37 29.075 36.712 28.375 36.136 27.825C35.56 27.275 34.848 27 34 27C33.15 27 32.437 27.288 31.861 27.864C31.285 28.44 30.998 29.152 31 30V42.075C31 42.925 31.288 43.625 31.864 44.175C32.44 44.725 33.152 45 34 45ZM34 21C34.85 21 35.563 20.712 36.139 20.136C36.715 19.56 37.002 18.848 37 18C37 17.15 36.712 16.437 36.136 15.861C35.56 15.285 34.848 14.998 34 15C33.15 15 32.437 15.288 31.861 15.864C31.285 16.44 30.998 17.152 31 18C31 18.85 31.288 19.563 31.864 20.139C32.44 20.715 33.152 21.002 34 21ZM34 60C29.85 60 25.95 59.212 22.3 57.636C18.65 56.06 15.475 53.923 12.775 51.225C10.075 48.525 7.938 45.35 6.364 41.7C4.79 38.05 4.002 34.15 4 30C4 25.85 4.788 21.95 6.364 18.3C7.94 14.65 10.077 11.475 12.775 8.775C15.475 6.075 18.65 3.938 22.3 2.364C25.95 0.79 29.85 0.002 34 0C38.15 0 42.05 0.788 45.7 2.364C49.35 3.94 52.525 6.077 55.225 8.775C57.925 11.475 60.063 14.65 61.639 18.3C63.215 21.95 64.002 25.85 64 30C64 34.15 63.212 38.05 61.636 41.7C60.06 45.35 57.923 48.525 55.225 51.225C52.525 53.925 49.35 56.063 45.7 57.639C42.05 59.215 38.15 60.002 34 60Z" fill="white"/>
</g>
<defs>
<filter id="filter0_d_237_10" x="0" y="0" width="68" height="68" filterUnits="userSpaceOnUse" color-interpolation-filters="sRGB">
<feFlood flood-opacity="0" result="BackgroundImageFix"/>
<feColorMatrix in="SourceAlpha" type="matrix" values="0 0 0 0 0 0 0 0 0 0 0 0 0 0 0 0 0 0 127 0" result="hardAlpha"/>
<feOffset dy="4"/>
<feGaussianBlur stdDeviation="2"/>
<feComposite in2="hardAlpha" operator="out"/>
<feColorMatrix type="matrix" values="0 0 0 0 0 0 0 0 0 0 0 0 0 0 0 0 0 0 0.25 0"/>
<feBlend mode="normal" in2="BackgroundImageFix" result="effect1_dropShadow_237_10"/>
<feBlend mode="normal" in="SourceGraphic" in2="effect1_dropShadow_237_10" result="shape"/>
</filter>
</defs>
</svg>
