<svg width="135" height="132" viewBox="0 0 135 132" fill="none" xmlns="http://www.w3.org/2000/svg">
<path fill-rule="evenodd" clip-rule="evenodd" d="M67.5 115.5C95.4591 115.5 118.125 93.3378 118.125 66C118.125 38.6623 95.4591 16.5 67.5 16.5C39.5409 16.5 16.875 38.6623 16.875 66C16.875 93.3378 39.5409 115.5 67.5 115.5ZM67.5 121C98.5669 121 123.75 96.3765 123.75 66C123.75 35.6235 98.5669 11 67.5 11C36.4331 11 11.25 35.6235 11.25 66C11.25 96.3765 36.4331 121 67.5 121Z" fill="white"/>
<path d="M33.75 97.9825C33.75 95.1417 35.9213 92.741 38.8125 92.4275C60.5109 90.079 74.5875 90.2907 96.2381 92.4797C97.3193 92.5907 98.344 93.0072 99.187 93.6783C100.03 94.3493 100.655 95.2459 100.986 96.2586C101.316 97.2712 101.338 98.356 101.048 99.3805C100.758 100.405 100.17 101.325 99.3544 102.028C73.8028 123.805 59.2003 123.505 35.55 102.05C34.3969 101.005 33.75 99.517 33.75 97.9825Z" fill="white"/>
<path fill-rule="evenodd" clip-rule="evenodd" d="M95.9485 95.2133C74.4694 93.0408 60.5953 92.8373 39.1191 95.161C38.4121 95.2416 37.7604 95.5742 37.2887 96.0953C36.817 96.6164 36.5584 97.2894 36.5625 97.9853C36.5625 98.7718 36.8972 99.517 37.4625 100.034C49.185 110.666 58.0669 115.47 66.7491 115.5C75.4622 115.53 84.8222 110.765 97.5066 99.957C97.9095 99.6063 98.1996 99.1487 98.3416 98.6398C98.4836 98.1309 98.4713 97.5927 98.3062 97.0905C98.1412 96.5883 97.8305 96.1438 97.4119 95.811C96.9934 95.4782 96.4849 95.2688 95.9485 95.2133ZM38.5031 89.694C60.4294 87.3208 74.7113 87.5353 96.5306 89.7435C98.1571 89.9095 99.6988 90.5356 100.967 91.5451C102.235 92.5546 103.175 93.9038 103.671 95.4274C104.167 96.9511 104.198 98.5831 103.76 100.124C103.322 101.664 102.434 103.046 101.205 104.101C88.3378 115.068 77.6222 121.041 66.7322 121C55.8113 120.962 45.5681 114.887 33.6403 104.066C32.7863 103.288 32.1055 102.346 31.6405 101.299C31.1754 100.253 30.9361 99.1237 30.9375 97.9825C30.9334 95.9322 31.7031 93.9525 33.0991 92.4226C34.4951 90.8926 36.4193 89.9229 38.5031 89.694Z" fill="white"/>
<path d="M90 55C90 60.8348 87.6295 66.4305 83.4099 70.5564C79.1903 74.6822 73.4674 77 67.5 77C61.5326 77 55.8097 74.6822 51.5901 70.5564C47.3705 66.4305 45 60.8348 45 55C45 49.1652 47.3705 43.5695 51.5901 39.4436C55.8097 35.3178 61.5326 33 67.5 33C73.4674 33 79.1903 35.3178 83.4099 39.4436C87.6295 43.5695 90 49.1652 90 55Z" fill="white"/>
<path fill-rule="evenodd" clip-rule="evenodd" d="M67.5 71.5C71.9755 71.5 76.2678 69.7616 79.4324 66.6673C82.5971 63.5729 84.375 59.3761 84.375 55C84.375 50.6239 82.5971 46.4271 79.4324 43.3327C76.2678 40.2384 71.9755 38.5 67.5 38.5C63.0245 38.5 58.7322 40.2384 55.5676 43.3327C52.4029 46.4271 50.625 50.6239 50.625 55C50.625 59.3761 52.4029 63.5729 55.5676 66.6673C58.7322 69.7616 63.0245 71.5 67.5 71.5ZM67.5 77C73.4674 77 79.1903 74.6822 83.4099 70.5564C87.6295 66.4305 90 60.8348 90 55C90 49.1652 87.6295 43.5695 83.4099 39.4436C79.1903 35.3178 73.4674 33 67.5 33C61.5326 33 55.8097 35.3178 51.5901 39.4436C47.3705 43.5695 45 49.1652 45 55C45 60.8348 47.3705 66.4305 51.5901 70.5564C55.8097 74.6822 61.5326 77 67.5 77Z" fill="white"/>
</svg>
