<svg width="55" height="55" viewBox="0 0 55 55" fill="none" xmlns="http://www.w3.org/2000/svg">
<path d="M19.9751 55L18.8806 46.2C18.2877 45.9708 17.7286 45.6958 17.2032 45.375C16.6779 45.0542 16.1653 44.7104 15.6654 44.3438L7.52488 47.7812L0 34.7188L7.04602 29.3563C7.00042 29.0354 6.97761 28.7256 6.97761 28.4267V26.5733C6.97761 26.2744 7.00042 25.9646 7.04602 25.6437L0 20.2812L7.52488 7.21875L15.6654 10.6562C16.1671 10.2896 16.6915 9.94583 17.2388 9.625C17.7861 9.30417 18.3333 9.02917 18.8806 8.8L19.9751 0H35.0249L36.1194 8.8C36.7123 9.02917 37.2714 9.30417 37.7968 9.625C38.3221 9.94583 38.8347 10.2896 39.3346 10.6562L47.4751 7.21875L55 20.2812L47.954 25.6437C47.9996 25.9646 48.0224 26.2744 48.0224 26.5733V28.4267C48.0224 28.7256 47.9768 29.0354 47.8856 29.3563L54.9316 34.7188L47.4067 47.7812L39.3346 44.3438C38.8329 44.7104 38.3085 45.0542 37.7612 45.375C37.2139 45.6958 36.6667 45.9708 36.1194 46.2L35.0249 55H19.9751ZM27.6368 37.125C30.2819 37.125 32.5394 36.1854 34.4092 34.3063C36.279 32.4271 37.2139 30.1583 37.2139 27.5C37.2139 24.8417 36.279 22.5729 34.4092 20.6937C32.5394 18.8146 30.2819 17.875 27.6368 17.875C24.9461 17.875 22.6768 18.8146 20.8289 20.6937C18.9809 22.5729 18.0579 24.8417 18.0597 27.5C18.0597 30.1583 18.9828 32.4271 20.8289 34.3063C22.675 36.1854 24.9443 37.125 27.6368 37.125Z" fill="white"/>
</svg>
